<svg xmlns="http://www.w3.org/2000/svg" viewBox="0 0 24 24">
  <!-- Base folder shape -->
  <path d="M2 6C2 4.89543 2.89543 4 4 4H9L11 6H20C21.1046 6 22 6.89543 22 8V18C22 19.1046 21.1046 20 20 20H4C2.89543 20 2 19.1046 2 18V6Z" 
        fill="#007979" />
  
  <!-- Data elements -->
  <rect x="6" y="10" width="4" height="2" fill="white" rx="0.5"/>
  <rect x="14" y="10" width="4" height="2" fill="white" rx="0.5"/>
  <rect x="6" y="14" width="4" height="2" fill="white" rx="0.5"/>
  <rect x="14" y="14" width="4" height="2" fill="white" rx="0.5"/>
  
  <!-- Connection lines -->
  <line x1="10" y1="11" x2="14" y2="11" stroke="white" stroke-width="0.5"/>
  <line x1="10" y1="15" x2="14" y2="15" stroke="white" stroke-width="0.5"/>
  <line x1="8" y1="12" x2="8" y2="14" stroke="white" stroke-width="0.5"/>
  <line x1="16" y1="12" x2="16" y2="14" stroke="white" stroke-width="0.5"/>
</svg>
